Coordinates
version=1
nRows=19
nColumns=34
inDegrees=yes

Units are S.I. units (second, meters, Newtons, ...)
If the header above contains a line with 'inDegrees', this indicates whether rotational values are in degrees (yes) or radians (no).

endheader
time	pelvis_tilt	pelvis_list	pelvis_rotation	pelvis_tx	pelvis_ty	pelvis_tz	hip_flexion_r	hip_adduction_r	hip_rotation_r	knee_angle_r	ankle_angle_r	subtalar_angle_r	mtp_angle_r	hip_flexion_l	hip_adduction_l	hip_rotation_l	knee_angle_l	ankle_angle_l	subtalar_angle_l	mtp_angle_l	lumbar_extension	lumbar_bending	lumbar_rotation	arm_flex_r	arm_add_r	arm_rot_r	elbow_flex_r	pro_sup_r	arm_flex_l	arm_add_l	arm_rot_l	elbow_flex_l	pro_sup_l
      3.68333330	    -10.13763261	      0.20834851	      4.77428415	      1.02966715	      0.96804944	     -0.13391736	     23.09778900	     -4.19584760	     -2.16592970	     18.99004060	      8.14821232	    -11.42432271	      0.00000000	     21.29830773	      2.40043725	      6.57443597	     23.77119632	     11.80577331	     -4.24981083	      0.00000000	     -9.13436112	      1.17652869	     -4.53068331	     19.54925503	     -8.66951404	     46.28825592	    131.24734049	    101.53925369	     18.26809093	    -12.41512199	     34.72332849	    135.19940843	     89.55014256
      3.70000000	    -10.20364849	      0.28076029	      4.39483219	      1.03444982	      0.97073370	     -0.13533358	     21.98216940	     -4.11301739	     -2.23088805	     17.15338028	      8.44696337	    -11.34938013	      0.00000000	     20.25357078	      2.42954479	      6.94545890	     22.16040648	     11.98134176	     -4.05512099	      0.00000000	     -8.10168766	      1.01852319	     -4.41854372	     18.86792924	     -9.03550234	     46.43576656	    131.24428441	    101.55428343	     17.30677592	    -12.97039466	     34.82662532	    135.24985704	     89.37445939
      3.71666670	     -9.38738918	      0.36296229	      4.05036102	      1.03818851	      0.97771827	     -0.13656959	     19.85423338	     -4.07242877	     -2.60237187	     15.27893845	      8.53012971	    -10.66016013	      0.00000000	     18.22848489	      2.40618170	      7.24477233	     20.48587151	     12.03199984	     -3.60092445	      0.00000000	     -8.11307601	      1.04453334	     -4.52131493	     18.84076997	     -9.02364838	     46.25989987	    130.62786295	    101.45755043	     16.48229119	    -13.26649788	     34.33861535	    135.02744547	     88.59553314
      3.73333330	     -9.30022859	      0.39289404	      3.67204565	      1.03912134	      0.97793395	     -0.13733059	     18.90619590	     -4.01577489	     -2.61136209	     13.96819601	      8.67277215	    -10.56688190	      0.00000000	     17.24847254	      2.44369637	      7.58612945	     19.23175590	     12.13505369	     -3.40973692	      0.00000000	     -7.36752391	      1.05404025	     -4.44576208	     18.20226700	     -9.30636859	     46.44440602	    130.63991251	    101.41917107	     15.51453250	    -13.53161141	     34.43160281	    134.94490460	     88.40260657
      3.75000000	     -8.89592880	      0.45713929	      3.28651745	      1.04047605	      0.97654881	     -0.13849365	     17.75115405	     -4.04887199	     -2.82116031	     12.98114130	      8.31645401	    -10.42599092	      0.00000000	     16.15500060	      2.50236970	      7.80709290	     18.19364647	     12.00054077	     -3.25150717	      0.00000000	     -7.02826426	      1.05819833	     -4.37426472	     17.86046780	     -9.32456781	     46.55540320	    130.25624502	    101.33895979	     14.86667790	    -13.52662424	     34.47795595	    134.79845458	     88.14738868
      3.76666670	     -8.07704061	      0.46849102	      3.15614213	      1.04299507	      0.97954266	     -0.13720920	     16.26622740	     -3.94804321	     -2.84680393	     12.00660783	      8.37236672	    -10.31429138	      0.00000000	     14.66162770	      2.45159827	      8.18179518	     17.16441451	     11.72651818	     -3.30638023	      0.00000000	     -7.32066922	      1.11459505	     -4.43980599	     18.15135875	     -8.99525123	     46.40747896	    129.45236430	    101.02191088	     14.73322768	    -13.49264478	     34.35058354	    134.60034929	     87.45030617
      3.78333330	     -7.98546882	      0.34855044	      2.90375541	      1.04024468	      0.97519698	     -0.13614740	     15.96070907	     -3.71380702	     -2.50146034	     11.53401288	      8.58821473	    -10.25794363	      0.00000000	     14.37896686	      2.31286878	      8.53797740	     16.76870959	     11.69325924	     -3.23820545	      0.00000000	     -7.06527103	      1.23189413	     -4.32362780	     17.99040686	     -8.94167316	     46.46795369	    129.23176384	    100.94256062	     14.47097654	    -13.45612464	     34.45208633	    134.65643888	     87.30388051
      3.80000000	     -7.76304158	      0.29735941	      2.65138708	      1.04231723	      0.98094172	     -0.13744395	     15.58227649	     -3.55386230	     -2.40563260	     11.25436942	      8.20208821	    -10.08318403	      0.00000000	     13.84401199	      2.14611426	      8.63850635	     16.36083852	     11.21063812	     -3.25182904	      0.00000000	     -7.06211050	      1.28303829	     -4.34808316	     17.46450664	     -8.73133988	     46.53684979	    128.84124515	    100.84927643	     13.98729748	    -13.30569110	     34.58094024	    134.44792294	     87.12687954
      3.81666670	     -7.07708216	      0.28554817	      2.53187563	      1.04428644	      0.97916070	     -0.13756770	     14.67848074	     -3.46788973	     -2.34833347	     10.96761183	      7.79841086	    -10.10311817	      0.00000000	     12.87122785	      2.07171138	      8.90122952	     16.02526023	     10.59758739	     -3.97398777	      0.00000000	     -7.46379910	      1.27390946	     -4.48108257	     17.26720700	     -8.48943648	     46.03812036	    128.34646489	    100.48264585	     13.76055443	    -13.15986570	     34.31392443	    134.15915111	     86.49008316
      3.83333330	     -6.85053118	      0.22439592	      2.41130673	      1.04543137	      0.97941858	     -0.13684399	     14.45904487	     -3.37004343	     -2.32654999	     11.09574734	      7.65006740	    -10.08774114	      0.00000000	     12.53435651	      1.94791283	      8.94968815	     15.92173515	     10.47461740	     -4.03535356	      0.00000000	     -7.47558489	      1.35847026	     -4.59761004	     16.68870446	     -8.39917026	     46.14384296	    128.31546077	    100.41560949	     13.23064622	    -13.02407311	     34.47349916	    133.96868522	     86.37076471
      3.85000000	     -6.66570462	      0.15928892	      2.41688712	      1.04600105	      0.97994757	     -0.13791926	     14.31991884	     -3.32271990	     -2.29828823	     11.31610140	      7.56438141	    -10.06460768	      0.00000000	     12.31225153	      1.88790383	      8.95027373	     16.06456706	     10.40106571	     -4.03554448	      0.00000000	     -7.27918314	      1.36198903	     -4.61700416	     16.54151281	     -8.35553181	     46.15244841	    128.30003215	    100.40151528	     13.08240289	    -12.96088846	     34.51842658	    133.94084240	     86.34846077
      3.86666670	     -5.96366554	      0.06044531	      2.37662397	      1.04708193	      0.98511199	     -0.13840584	     13.35075223	     -3.18973997	     -2.09934046	     11.00203464	      6.84228545	     -9.98953505	      0.00000000	     11.22690884	      1.74230922	      8.96421693	     15.55020965	      9.87876707	     -4.24597766	      0.00000000	     -7.71032515	      1.52543545	     -4.82895546	     15.70110184	     -7.93582944	     45.15157240	    127.36849648	    100.03036128	     12.14496564	    -12.41363079	     34.30748559	    133.09973904	     85.83196769
      3.88333330	     -5.64936874	     -0.00313885	      2.36505473	      1.04877680	      0.98350773	     -0.13881706	     13.12464621	     -3.12533595	     -1.98153393	     11.27133713	      6.82449315	    -10.06293062	      0.00000000	     10.76757156	      1.67022312	      8.96003877	     15.47276214	      9.89461794	     -4.34014977	      0.00000000	     -7.82479063	      1.56498832	     -4.91283272	     15.10614869	     -7.74493947	     45.01537985	    127.27619885	     99.89360377	     11.46694957	    -11.97307567	     34.45825175	    132.88825126	     85.64891783
      3.90000000	     -5.29053230	      0.05478891	      2.41211311	      1.04897077	      0.97975606	     -0.13712286	     12.88001357	     -3.16009661	     -1.79316445	     11.51346299	      6.95452876	    -10.30916478	      0.00000000	     10.26295617	      1.70171497	      9.04629035	     15.32676419	      9.77430165	     -4.45895916	      0.00000000	     -7.95058570	      1.44068889	     -5.00673399	     14.46984459	     -7.31309158	     44.68158034	    127.15508152	     99.70119228	     11.01733370	    -11.66077201	     34.42151034	    132.67356003	     85.40364746
      3.91666670	     -4.88884935	      0.12366660	      2.52019398	      1.05080778	      0.98188818	     -0.13727201	     12.47598583	     -3.20461183	     -1.55596026	     11.61415514	      6.89408395	    -10.62093061	      0.00000000	      9.61066325	      1.73180199	      9.25972628	     14.95512090	      9.41842101	     -4.75056338	      0.00000000	     -8.08946390	      1.28745128	     -5.15149922	     13.76937329	     -6.91630324	     43.77994938	    127.01524873	     99.26391892	     10.74771113	    -11.44176608	     34.17676850	    132.32633667	     84.83904993
      3.93333330	     -4.76015107	      0.17855337	      2.64772479	      1.05249253	      0.98323175	     -0.13703480	     12.34315503	     -3.25805030	     -1.51880093	     11.73548028	      6.93968042	    -10.72585780	      0.00000000	      9.21141650	      1.74806373	      9.46475529	     14.57337651	      9.33116820	     -4.68786026	      0.00000000	     -7.97687844	      1.18573217	     -5.21490372	     13.20507180	     -6.61393809	     43.87095306	    127.04833782	     99.17814166	     10.35582282	    -11.19412617	     34.35020079	    132.17567664	     84.71891536
      3.95000000	     -4.64514009	      0.28211393	      2.77422115	      1.05435583	      0.98397598	     -0.13743198	     12.07012301	     -3.36847249	     -1.45782059	     11.65135589	      6.94665034	    -10.78658488	      0.00000000	      8.72402644	      1.80226041	      9.64836737	     14.02781716	      8.98830894	     -4.53300984	      0.00000000	     -7.78014320	      1.00145582	     -5.32974668	     12.81880626	     -6.35605427	     43.74722946	    127.08703188	     99.07785344	     10.05437177	    -10.95702853	     34.41944406	    132.00571977	     84.59114022
      3.96666670	     -4.55996051	      0.29512160	      2.86659792	      1.05631448	      0.98214609	     -0.13730677	     11.92063570	     -3.37685191	     -1.45020428	     11.75953505	      6.93004484	    -10.79388052	      0.00000000	      8.47718076	      1.77223609	      9.65714321	     13.97766011	      8.90977487	     -4.50331850	      0.00000000	     -7.52921180	      0.94493696	     -5.33036319	     12.74034444	     -6.28110081	     43.73331684	    127.10722639	     99.06128842	      9.99713574	    -10.91010659	     34.43527076	    132.01697604	     84.57084000
      3.98333330	     -4.07320689	      0.47640204	      2.92354645	      1.05812941	      0.98472459	     -0.13781735	     11.02087954	     -3.55738083	     -1.51886528	     11.42725615	      6.74209957	    -10.88435628	      0.00000000	      7.23123549	      1.83785662	      9.68838970	     12.82946805	      8.11797537	     -4.42974289	      0.00000000	     -7.68520969	      0.67326944	     -5.45638190	     12.11540448	     -5.85028976	     42.68924273	    126.87522158	     98.65599527	      9.65340041	    -10.68235188	     34.07964991	    131.58825865	     84.06926158
